<svg width="414" height="303" viewBox="0 0 414 303" fill="none" xmlns="http://www.w3.org/2000/svg">
<g clip-path="url(#clip0_11_14)">
<path d="M157.327 57.517L154.083 58.5122L151.881 53.4665L146.968 54.346L144.72 50.8279L142.936 51.962L145.949 56.6606L150.607 55.8273L152.878 61.0814L157.767 59.5769L157.327 57.517Z" fill="#50BFA5"/>
<path d="M365.636 238.91L362.392 239.905L360.213 234.859L355.277 235.739L353.03 232.22L351.245 233.355L354.258 238.053L358.916 237.22L361.187 242.474L366.076 240.97L365.636 238.91Z" fill="#50BFA5"/>
<path d="M137.305 298.625C137.305 298.625 119.971 239.951 118.58 227.013C117.19 214.074 126.877 218.079 126.877 218.079C126.877 218.079 118.719 193.405 124.629 187.549C130.515 181.693 135.845 192.618 135.845 192.618C135.845 192.618 137.629 162.668 143.909 162.668C155.612 162.645 155.38 195.326 155.38 195.326C155.38 195.326 158.37 182.527 164.65 186.045C174.105 191.322 160.548 216.968 160.548 216.968C160.548 216.968 172.599 216.968 176.839 223.055C184.417 233.91 137.305 298.625 137.305 298.625Z" fill="#50BFA5"/>
<path d="M142.982 290.849C142.982 290.849 93.0195 282.493 82.151 273.651C71.2825 264.81 82.0351 260.829 82.0351 260.829C82.0351 260.829 56.9379 247.983 57.216 239.234C57.5173 230.485 69.9848 234.929 69.9848 234.929C69.9848 234.929 48.8271 210.857 53.8326 206.274C63.1485 197.757 87.62 222.8 87.62 222.8C87.62 222.8 80.3666 210.88 88.014 209.005C99.5545 206.159 108.059 235.53 108.059 235.53C108.059 235.53 105.904 223.934 113.853 225.485C128.081 228.24 142.982 290.849 142.982 290.849Z" fill="#50BFA5"/>
<path d="M113.83 225.485C105.858 224.05 108.036 235.53 108.036 235.53C108.036 235.53 99.5315 206.159 87.9909 209.005C80.3436 210.88 87.597 222.8 87.597 222.8C87.597 222.8 63.1486 197.757 53.8096 206.274L142.797 290.872C141.221 282.794 127.178 227.892 113.83 225.485Z" fill="#3C8F7C"/>
<path d="M157.188 297.746C157.188 297.746 130.862 271.013 117.63 268.235C104.375 265.458 106.761 274.878 106.761 274.878C106.761 274.878 80.4592 251.918 74.3645 257.473C68.2698 263.028 74.8511 268.42 74.8511 268.42C74.8511 268.42 52.9519 264.555 49.8234 271.73C45.0033 282.771 81.0154 288.766 81.0154 288.766C81.0154 288.766 65.9292 289.807 69.4285 296.728C74.7121 307.12 157.188 297.746 157.188 297.746Z" fill="#355389"/>
<path d="M49.8232 271.684C52.9517 264.509 74.851 268.374 74.851 268.374C74.851 268.374 68.2696 263.004 74.3643 257.426C80.459 251.871 105.927 271.707 105.927 271.707C105.927 271.707 99.925 260.25 113.18 263.027C126.436 265.805 157.187 297.723 157.187 297.723L49.8232 271.684Z" fill="#466EB6"/>
<path d="M199.086 22.0578C190.234 23.516 187.592 35.1351 194.961 40.3197C196.282 41.2456 197.209 42.6575 197.58 44.2314L198.924 49.6243C199.295 51.1056 200.755 52.0777 202.261 51.8231L205.621 51.2676C207.128 51.013 208.217 49.6474 208.078 48.1198C207.614 42.5417 207.035 40.5281 208.842 38.0283C214.149 30.7606 207.939 20.5996 199.086 22.0578Z" fill="#F7CC7F"/>
<path d="M199.99 45.6664C199.411 40.8984 198.599 35.8526 198.321 34.4176C193.246 34.6954 195.17 29.3487 197.51 31.5244C198.182 32.1493 198.484 32.9826 198.692 33.9084C200.384 33.7464 202.029 33.2835 203.535 32.4965C203.466 31.3161 203.327 30.4366 203.674 29.6727C204.161 28.5386 205.621 28.2146 206.2 29.3256C206.432 29.7422 206.455 30.2745 206.293 30.7143C205.946 31.6633 204.926 32.2882 204.045 32.7743C204.323 36.5702 204.671 40.3892 205.158 44.1619L204.671 44.2314C204.207 40.5281 203.837 36.7553 203.582 33.0289C202.099 33.7695 200.477 34.2324 198.808 34.3945C199.156 36.223 199.92 41.1299 200.453 45.6201L199.99 45.6664ZM195.911 33.2835C196.352 33.7695 197.116 33.9778 198.229 33.9316C198.043 33.1215 197.765 32.3808 197.186 31.8716C195.934 30.7143 195.17 32.4734 195.911 33.2835ZM204.115 29.8579C203.837 30.4828 203.953 31.2929 203.999 32.2419C204.717 31.8253 205.575 31.3161 205.83 30.5523C206.015 30.0199 205.806 29.2793 205.273 29.1404C205.227 29.1404 204.323 29.4181 204.115 29.8579Z" fill="#FAE0B2"/>
<path d="M197.557 44.0923C197.58 44.1386 197.58 44.1849 197.603 44.2311L198.947 49.6241C199.318 51.1054 200.778 52.0775 202.284 51.8229L205.644 51.2674C207.151 51.0128 208.24 49.6472 208.101 48.1196C207.892 45.643 207.66 43.8608 207.637 42.4258L197.557 44.0923Z" fill="#96D9C9"/>
<path d="M192.528 18.0304L189.863 13.1929C189.608 12.73 189.771 12.1282 190.257 11.8736C190.721 11.619 191.323 11.781 191.578 12.2671L194.22 17.1046C194.475 17.5675 194.313 18.1693 193.826 18.4239C193.363 18.6785 192.783 18.4933 192.528 18.0304Z" fill="#FAE0B2"/>
<path d="M186.735 29.7189L180.964 29.2097C180.431 29.1634 180.037 28.7005 180.084 28.1681C180.13 27.6358 180.594 27.2423 181.127 27.2886L186.897 27.7978C187.43 27.8441 187.824 28.307 187.777 28.8394C187.731 29.3717 187.268 29.7652 186.735 29.7189Z" fill="#FAE0B2"/>
<path d="M181.011 47.4024C180.64 47.0321 180.64 46.4071 181.011 46.0368C182.424 44.6249 184 43.3751 185.645 42.2641C186.086 41.9632 186.688 42.0789 186.989 42.5418C187.291 42.9816 187.175 43.5834 186.711 43.8843C185.159 44.9258 183.699 46.1062 182.355 47.4255C181.984 47.7727 181.381 47.7727 181.011 47.4024Z" fill="#FAE0B2"/>
<path d="M206.78 17.7758C206.27 17.6369 205.969 17.1045 206.085 16.5953C206.734 14.1419 207.151 11.619 207.267 9.09614C207.29 8.56379 207.753 8.14717 208.286 8.19346C208.819 8.2166 209.236 8.67952 209.19 9.21187C209.051 11.8736 208.634 14.5354 207.939 17.1045C207.823 17.6137 207.29 17.9146 206.78 17.7758Z" fill="#FAE0B2"/>
<path d="M212.736 25.1823C212.574 24.6731 212.875 24.1408 213.385 23.9788L219.387 22.1734C219.897 22.0114 220.43 22.3123 220.592 22.8215C220.754 23.3307 220.453 23.863 219.943 24.0251L213.941 25.8304C213.431 25.9693 212.875 25.6915 212.736 25.1823Z" fill="#FAE0B2"/>
<path d="M222.585 41.1297C222.492 41.1297 222.399 41.1066 222.33 41.0834C220.244 40.5048 218.228 39.6947 216.328 38.6763C215.864 38.4217 215.679 37.843 215.934 37.3801C216.189 36.9172 216.768 36.7321 217.232 36.9867C219.016 37.9356 220.916 38.6994 222.863 39.2318C223.373 39.3707 223.674 39.903 223.535 40.4122C223.396 40.852 223.002 41.1297 222.585 41.1297Z" fill="#FAE0B2"/>
<path d="M310.506 83.7873L307.47 76.6353L299.846 75.0614C298.988 74.8762 298.687 73.7884 299.359 73.2097L305.245 68.1177L304.388 60.4102C304.295 59.5306 305.245 58.9289 306.01 59.3686L312.661 63.3728L319.752 60.1556C320.563 59.7853 321.444 60.5028 321.235 61.3592L319.474 68.9278L324.711 74.6679C325.314 75.316 324.897 76.3807 324.016 76.4501L316.276 77.1213L312.429 83.8799C311.989 84.6668 310.853 84.5974 310.506 83.7873Z" fill="#F7CC7F"/>
<path d="M358.707 59.2529L357.479 64.2524L349.183 63.1414L346.472 70.2471L340.122 70.4323L340.215 73.6264L348.696 73.3949L351.269 66.6595L359.889 67.8168L361.766 60.2713L358.707 59.2529Z" fill="#F48C7F"/>
<path d="M284.876 299.273H139.205C133.643 299.273 129.125 294.598 129.125 288.835V282.632C129.125 276.868 133.643 272.193 139.205 272.193H284.899C278.225 279.738 278.109 291.265 284.621 298.949L284.876 299.273Z" fill="#B75742"/>
<path d="M282.628 275.294H201.821C196.259 275.294 191.74 279.97 191.74 285.733C191.74 291.496 196.259 296.172 201.821 296.172H282.628C278.851 289.76 278.874 281.683 282.628 275.294Z" fill="#FAE0B2"/>
<path d="M233.708 253.375C233.916 252.982 233.592 252.519 233.105 252.519H156.006C149.958 252.519 145.068 256.917 145.068 262.356C145.068 267.795 149.958 272.193 156.006 272.193H233.128C233.615 272.193 233.939 271.73 233.731 271.336C230.672 265.643 230.672 259.046 233.708 253.375Z" fill="#86B1F2"/>
<path d="M233.221 254.371H195.008C187.917 254.371 182.169 258.051 182.169 262.611C182.169 267.17 187.917 270.851 195.008 270.851H233.453C230.834 265.596 230.765 259.625 233.221 254.371Z" fill="#F7CC7F"/>
<path d="M223.349 258.259H218.366C217.301 258.259 216.42 258.63 216.42 259.069V259.139H223.326V258.259H223.349Z" fill="#B75742"/>
<path d="M227.59 260.273C227.59 259.162 226.292 258.259 224.693 258.259H218.297C219.502 258.259 220.498 258.93 220.498 259.787L220.475 281.335L223.998 278.558L227.59 281.335V260.273Z" fill="#F47458"/>
<path d="M219.525 251.825H174.684C170.698 251.825 167.477 248.006 167.477 243.284C167.477 238.562 170.698 234.743 174.684 234.743H219.525C216.096 239.465 215.957 246.409 219.201 251.339L219.525 251.825Z" fill="#FAE0B2"/>
<path d="M167.477 243.284C167.477 238.562 170.768 234.743 174.846 234.743H220.383C220.591 234.743 220.777 234.535 220.754 234.304C220.754 234.072 220.591 233.864 220.383 233.864H148.15C143.654 233.864 140.016 238.076 140.016 243.284C140.016 248.492 143.654 252.704 148.15 252.704H220.383C220.591 252.704 220.754 252.519 220.754 252.265C220.754 252.01 220.591 251.825 220.383 251.825H174.846C170.768 251.825 167.477 248.006 167.477 243.284Z" fill="#466EB6"/>
<path d="M211.693 238.933H206.71C205.644 238.933 204.764 239.28 204.764 239.72V239.789H211.669V238.933H211.693Z" fill="#184655"/>
<path d="M215.933 240.923C215.933 239.835 214.636 238.956 213.037 238.956H206.641C207.846 238.956 208.842 239.627 208.842 240.46L208.819 261.592L212.341 258.884L215.933 261.592V240.923Z" fill="#3C8F7C"/>
<path d="M290.993 108.438L297.621 106.702L293.125 166.487L285.177 166.742L289.186 110.613C289.255 109.572 289.997 108.692 290.993 108.438Z" fill="#184655"/>
<path d="M293.728 168.177C293.589 168.2 293.427 168.2 293.264 168.177C291.943 168.014 290.97 166.718 291.086 165.26L295.489 109.039C295.605 107.581 296.764 106.516 298.085 106.678C299.406 106.84 300.379 108.137 300.263 109.595L295.86 165.816C295.744 167.112 294.84 168.084 293.728 168.177Z" fill="#F7CC7F"/>
<path d="M232.781 171.162C232.781 171.209 232.781 171.255 232.781 171.278C232.989 173.569 234.774 175.282 236.743 175.097L292.662 170.098C294.632 169.912 296.092 167.922 295.883 165.631C295.883 165.538 295.86 165.445 295.837 165.353L232.781 171.162Z" fill="#F7CC7F"/>
<path d="M271.713 231.549C268.051 233.586 256.858 230.022 256.858 229.698C256.696 232.753 244.321 262.657 244.321 262.657V271.869C244.321 271.869 269.812 273.073 269.442 270.827C269.071 268.582 267.704 270.04 262.629 265.782C262.188 265.411 255.028 263.745 256.974 259.532C260.867 251.038 269.14 236.873 271.713 231.549Z" fill="#F7A491"/>
<path d="M243.51 272.193H271.411C272.408 272.1 272.663 271.267 272.292 270.781C271.55 269.763 266.22 267.332 262.605 265.735C256.348 266.476 245.341 264.069 244.321 262.634C241.679 266.175 242.931 272.077 243.51 272.193Z" fill="#3C8F7C"/>
<path d="M237.369 210.093C236.998 208.959 261.401 198.613 262.49 199.793C264.413 201.876 249.281 241.131 249.281 241.131L266.661 246.432C266.661 246.432 284.737 201.089 283.995 192.803C283.23 184.517 274.192 175.097 254.564 181.115C234.959 187.156 237.369 210.093 237.369 210.093Z" fill="#355389"/>
<path d="M287.911 236.711C283.786 235.97 278.456 235.738 274.169 235.669C274.679 239.465 277.112 258.954 276.672 260.157C274.864 265.018 270.832 267.286 270.832 267.286C270.832 267.286 289.788 284.368 290.924 282.4C292.059 280.433 290.089 280.687 288.838 274.183C288.722 273.605 285.988 264.532 285.825 259.625C285.524 250.274 287.772 241.895 287.911 236.711Z" fill="#F7A491"/>
<path d="M281.816 172.944C279.174 171.532 272.315 171.486 264.76 171.972C250.045 172.921 235.515 175.814 221.541 180.444L212.179 183.545L212.202 173.963C212.202 173.963 182.401 168.986 181.381 176.37C179.828 187.48 181.752 210.024 191.693 215.046C222.515 230.67 265.734 190.142 265.896 195.442C266.104 202.571 272.106 229.073 273.659 240.669C277.923 240.738 285.269 240.738 288.467 240.021C289.07 217.291 289.348 176.949 281.816 172.944Z" fill="#466EB6"/>
<path d="M270.276 267.679L291.572 284.668C292.407 285.224 293.125 284.738 293.148 284.136C293.241 282.886 290.622 277.632 288.861 274.114C283.554 270.712 276.556 261.847 276.672 260.111C274.447 262.009 269.905 267.24 270.276 267.679Z" fill="#3C8F7C"/>
<path d="M222.051 80.2459C221.333 73.7188 220.591 67.1454 215.169 62.3774C210.789 58.5121 205.204 57.8409 199.688 59.924C184.046 65.7798 192.111 79.6441 172.181 93.6241C165.994 97.9755 159.157 100.938 154.5 106.794C147.965 114.988 150.444 124.824 156.377 131.398C184.834 162.853 216.605 120.38 218.899 110.173C220.591 102.605 222.515 84.4584 222.051 80.2459Z" fill="#13375B"/>
<path d="M216.281 116.978C213.964 112.696 211.554 109.294 211.554 109.294C209.144 105.012 202.91 102.836 202.91 102.836C202.91 102.836 200.824 102.882 198.437 102.998C198.298 103.391 198.136 103.669 197.997 103.785C197.093 104.456 191.949 103.6 188.612 105.845C177.465 115.404 180.547 161.695 181.428 176.323L215.4 176.647C215.4 176.647 211.113 145.169 218.019 137.092C222.816 131.49 219.734 123.343 216.281 116.978Z" fill="#50BFA5"/>
<path d="M200.963 87.1897C200.963 87.1897 199.086 100.522 197.788 103.762C196.491 107.002 204.972 113.923 212.017 116.029C219.062 118.135 209.862 108.877 210.163 105.405C210.464 101.934 211.739 85.5464 211.739 85.5464L200.963 87.1897Z" fill="#F7A491"/>
<path d="M211.368 90.2679C211.576 87.5599 211.716 85.5693 211.716 85.5693L200.94 87.2127C200.94 87.2127 200.662 88.7866 200.36 90.9854C204.74 93.5083 208.68 92.6982 211.368 90.2679Z" fill="#F47458"/>
<path d="M204.323 62.8636C204.323 62.8636 200.082 63.8126 197.464 67.8168C194.845 71.821 193.038 83.5559 201.681 89.0645C210.302 94.5501 217.023 86.7963 217.138 79.2276C217.254 71.6358 215.609 61.5212 204.323 62.8636Z" fill="#F7A491"/>
<path d="M219.108 76.8434C218.367 78.6719 216.907 79.8061 215.841 79.3663C214.775 78.9265 214.497 77.098 215.238 75.2926C215.98 73.4641 217.44 72.33 218.506 72.7698C219.572 73.1864 219.85 75.0149 219.108 76.8434Z" fill="#F7A491"/>
<path d="M205.598 62.6088C205.598 62.6088 200.198 74.7371 195.424 75.8018C190.674 76.8897 190.743 82.977 190.743 82.977C190.743 82.977 190.859 68.9044 195.308 65.664C199.781 62.4468 205.598 62.6088 205.598 62.6088Z" fill="#13375B"/>
<path d="M197.325 78.3248C197.95 80.2922 197.371 82.2364 196.05 82.653C194.729 83.0696 193.13 81.8198 192.504 79.8524C191.879 77.885 192.458 75.9408 193.779 75.5242C195.123 75.1075 196.699 76.3574 197.325 78.3248Z" fill="#F7A491"/>
<path d="M258.109 165.839C256.07 165.098 253.034 165.005 253.081 164.751C253.289 163.663 262.281 167.158 261.076 165.561C260.404 164.681 253.66 161.557 252.015 162.066C250.416 162.575 239.987 165.492 239.987 165.492L211.46 158.802C211.46 158.802 204.253 142.462 203.558 128.412C197.603 129.222 193.547 130.68 188.379 133.55C190.882 146.975 196.931 168.755 203.651 172.829C206.478 174.541 240.15 170.769 240.15 170.769C240.15 170.769 247.565 170.236 248.793 169.773C249.72 169.426 252.084 168.084 253.359 167.713C256.279 166.88 261.493 168.963 261.516 168.385C261.516 167.991 260.195 166.579 258.109 165.839Z" fill="#F7A491"/>
<path d="M203.744 113.414C203.466 109.085 201.82 104.919 197.232 103.577C194.382 102.743 191.184 103.53 188.889 105.405C186.178 107.627 185.413 111.168 185.437 114.525C185.46 122.163 185.993 130.055 187.383 137.578C192.551 134.708 198.599 132.995 204.555 132.185C204.532 132.115 204.091 119.131 203.744 113.414Z" fill="#96D9C9"/>
<path d="M115.359 121.561L71.1204 113.344C70.2398 113.182 69.6373 112.326 69.8227 111.446L75.3612 81.704C75.5234 80.8244 76.3808 80.2227 77.2614 80.4078L121.5 88.6245C122.381 88.7866 122.983 89.643 122.798 90.5225L117.259 120.265C117.097 121.144 116.24 121.723 115.359 121.561Z" fill="#F7CC7F"/>
<path d="M94.2943 87.5831L80.8303 85.0834C79.9497 84.9214 79.3472 84.065 79.5326 83.1854L80.3669 78.672C80.5291 77.7925 81.3865 77.1907 82.2671 77.3758L95.7311 79.8756C96.6117 80.0376 97.2142 80.894 97.0289 81.7735L96.1946 86.2869C96.0324 87.1665 95.1749 87.7451 94.2943 87.5831Z" fill="#F7CC7F"/>
<path d="M117.352 120.427C117.12 121.237 116.309 121.746 115.475 121.584L70.9581 113.298C70.1238 113.136 69.5445 112.395 69.6372 111.539L71.9777 84.8983C72.0241 84.4353 72.2558 84.0187 72.6266 83.741C72.9974 83.4632 73.4609 83.3475 73.9243 83.4401L123.377 92.6289C123.841 92.7215 124.235 92.9761 124.466 93.3696C124.698 93.763 124.768 94.226 124.652 94.6657L117.352 120.427Z" fill="#FAE0B2"/>
<path d="M320.216 23.0992L312.661 25.1592L311.016 15.9935L313.495 15.5537L314.654 22.0114L319.567 20.6689L320.216 23.0992Z" fill="#50BFA5"/>
<path d="M78.9302 148.989C80.8304 148.827 83.7503 149.66 85.0481 150.563C85.2334 150.748 86.7397 151.35 88.3156 153.919L87.968 154.15C86.3226 152.437 85.2103 152.044 83.8894 151.651C81.711 151.095 79.5327 151.512 79.3473 151.604L78.9302 148.989Z" fill="#355389"/>
<path d="M88.1299 154.034C88.1299 154.034 76.5662 155.956 77.6554 164.982C78.7446 174.009 90.934 181.022 101.803 175.444C116.448 167.945 110.655 148.873 100.25 147.392C89.8216 145.91 88.1299 154.034 88.1299 154.034Z" fill="#F47458"/>
<path d="M93.0426 150.077C93.0426 150.077 96.0552 146.975 102.66 149.799C109.264 152.623 109.751 165.723 103.842 164.959C97.9555 164.196 88.3152 151.951 93.0426 150.077Z" fill="#F48C7F"/>
<path d="M172.529 30.2745L125 47.2171C123.47 47.7726 121.779 46.9625 121.246 45.4349L112.463 20.8542C111.907 19.3266 112.718 17.6369 114.247 17.1046L161.777 0.161936C163.306 -0.39356 164.998 0.416539 165.531 1.94415L174.314 26.5017C174.87 28.0525 174.059 29.719 172.529 30.2745Z" fill="#86B1F2"/>
<path d="M141.036 23.9556C142.774 28.8394 140.225 34.2323 135.335 35.9682C130.445 37.7042 125.046 35.1581 123.308 30.2744C121.57 25.3907 124.119 19.9977 129.008 18.2618C133.898 16.5259 139.274 19.0719 141.036 23.9556Z" fill="white"/>
<path d="M133.504 22.6364C134.014 24.0714 133.273 25.6684 131.813 26.1776C130.376 26.6868 128.777 25.9462 128.267 24.488C127.757 23.053 128.499 21.4559 129.959 20.9467C131.396 20.4607 132.995 21.2013 133.504 22.6364Z" fill="#86B1F2"/>
<path d="M138.024 30.3903L129.658 33.376L129.333 32.4502C128.731 30.7374 129.612 28.8626 131.326 28.2609L133.482 27.497C135.196 26.8953 137.073 27.7748 137.676 29.4876L138.024 30.3903Z" fill="#86B1F2"/>
<path d="M142.195 18.8175C141.685 18.8175 141.245 18.4934 141.059 18.0305C140.828 17.4056 141.152 16.7112 141.778 16.5029L162.565 9.09629C162.704 9.05 162.819 9.02686 162.959 9.02686C163.468 9.02686 163.909 9.3509 164.094 9.81381C164.326 10.4387 164.001 11.1331 163.376 11.3414L142.589 18.748C142.473 18.7943 142.334 18.8175 142.195 18.8175Z" fill="white"/>
<path d="M147.803 24.002C147.293 24.002 146.853 23.6779 146.668 23.215C146.436 22.5901 146.76 21.8957 147.386 21.6874L163.608 15.901C163.747 15.8547 163.863 15.8315 164.002 15.8315C164.512 15.8315 164.952 16.1556 165.137 16.6185C165.253 16.9194 165.23 17.2434 165.091 17.5443C164.952 17.8452 164.72 18.0535 164.419 18.1693L148.197 23.9557C148.081 23.9788 147.942 24.002 147.803 24.002Z" fill="white"/>
<path d="M246.384 215.556H131.627C128.059 215.556 125.185 218.449 125.185 221.99V227.406C125.185 230.971 128.082 233.841 131.627 233.841H246.384L246.315 233.771C241.425 228.702 241.448 220.625 246.384 215.556Z" fill="#F47458"/>
<path d="M244.344 218.264H183.003C179.435 218.264 176.561 221.157 176.561 224.698C176.561 228.263 179.458 231.133 183.003 231.133H244.344C242.097 227.175 242.097 222.245 244.344 218.264Z" fill="#FAE0B2"/>
<path d="M340.307 216.088L331.617 194.285C331.177 193.197 331.71 191.947 332.822 191.507L364.13 179.055C365.219 178.615 366.471 179.147 366.911 180.258L375.601 202.062C376.041 203.149 375.508 204.399 374.396 204.839L343.088 217.291C341.999 217.708 340.748 217.176 340.307 216.088Z" fill="#FAE0B2"/>
<path d="M369.854 203.473L362.044 183.892C361.928 183.568 362.067 183.221 362.392 183.105C362.716 182.99 363.064 183.128 363.18 183.452L370.989 203.034C371.105 203.358 370.966 203.705 370.642 203.821C370.317 203.936 369.97 203.797 369.854 203.473Z" fill="#466EB6"/>
<path d="M366.123 200.904L359.704 184.818C359.588 184.494 359.727 184.147 360.052 184.031C360.376 183.915 360.724 184.054 360.839 184.378L367.259 200.464C367.375 200.788 367.235 201.136 366.911 201.251C366.61 201.367 366.239 201.205 366.123 200.904Z" fill="#466EB6"/>
<path d="M365.196 205.325L357.387 185.744C357.271 185.42 357.41 185.073 357.734 184.957C358.059 184.841 358.406 184.98 358.522 185.304L366.332 204.885C366.448 205.21 366.308 205.557 365.984 205.672C365.683 205.788 365.312 205.649 365.196 205.325Z" fill="#466EB6"/>
<path d="M361.071 201.784L355.046 186.67C354.93 186.346 355.069 185.998 355.393 185.883C355.718 185.767 356.065 185.906 356.181 186.23L362.206 201.344C362.322 201.668 362.183 202.015 361.859 202.131C361.558 202.247 361.21 202.108 361.071 201.784Z" fill="#466EB6"/>
<path d="M369.622 181.809L369.46 181.416C369.391 181.277 369.252 181.207 369.113 181.254L366.146 182.434C366.007 182.48 365.938 182.642 366.007 182.804L366.169 183.198C366.239 183.337 366.378 183.406 366.517 183.36L369.483 182.179C369.622 182.11 369.692 181.948 369.622 181.809Z" fill="#355389"/>
<path d="M370.294 183.476L370.132 183.082C370.062 182.943 369.923 182.874 369.784 182.92L366.818 184.101C366.679 184.147 366.61 184.309 366.679 184.471L366.841 184.864C366.911 185.003 367.05 185.073 367.189 185.026L370.155 183.846C370.294 183.8 370.364 183.638 370.294 183.476Z" fill="#355389"/>
<path d="M370.99 185.165L370.827 184.772C370.781 184.633 370.619 184.563 370.48 184.61L367.513 185.79C367.374 185.836 367.305 185.998 367.374 186.16L367.537 186.554C367.606 186.693 367.745 186.762 367.884 186.716L370.851 185.536C370.966 185.489 371.036 185.327 370.99 185.165Z" fill="#355389"/>
<path d="M371.662 186.855L371.5 186.461C371.43 186.323 371.291 186.253 371.152 186.299L368.186 187.48C368.047 187.526 367.977 187.688 368.047 187.85L368.209 188.244C368.279 188.383 368.418 188.452 368.557 188.406L371.523 187.225C371.639 187.156 371.708 186.994 371.662 186.855Z" fill="#355389"/>
<path d="M372.334 188.544L372.172 188.151C372.102 188.012 371.963 187.943 371.824 187.989L368.858 189.169C368.719 189.216 368.649 189.378 368.719 189.54L368.881 189.933C368.95 190.072 369.089 190.141 369.229 190.095L372.195 188.915C372.311 188.845 372.38 188.683 372.334 188.544Z" fill="#355389"/>
<path d="M373.006 190.234L372.844 189.841C372.774 189.702 372.635 189.632 372.496 189.679L369.53 190.859C369.391 190.905 369.321 191.067 369.391 191.229L369.553 191.623C369.622 191.762 369.761 191.831 369.9 191.785L372.867 190.604C372.983 190.535 373.052 190.373 373.006 190.234Z" fill="#355389"/>
<path d="M373.678 191.924L373.516 191.53C373.446 191.391 373.307 191.322 373.168 191.368L370.202 192.549C370.063 192.595 369.993 192.757 370.063 192.919L370.225 193.313C370.295 193.451 370.434 193.521 370.573 193.475L373.539 192.294C373.678 192.225 373.724 192.063 373.678 191.924Z" fill="#355389"/>
<path d="M374.35 193.613L374.188 193.22C374.118 193.081 373.979 193.012 373.84 193.058L370.874 194.238C370.735 194.285 370.665 194.447 370.735 194.609L370.897 195.002C370.967 195.141 371.106 195.21 371.245 195.164L374.211 193.984C374.35 193.914 374.396 193.752 374.35 193.613Z" fill="#355389"/>
<path d="M375.022 195.303L374.86 194.909C374.79 194.771 374.651 194.701 374.512 194.747L371.546 195.928C371.407 195.974 371.337 196.136 371.407 196.298L371.569 196.692C371.638 196.831 371.777 196.9 371.917 196.854L374.883 195.673C375.022 195.604 375.068 195.442 375.022 195.303Z" fill="#355389"/>
<path d="M375.694 196.993L375.532 196.599C375.462 196.46 375.323 196.391 375.184 196.437L372.218 197.618C372.079 197.664 372.01 197.826 372.079 197.988L372.241 198.381C372.311 198.52 372.45 198.59 372.589 198.543L375.555 197.363C375.694 197.293 375.74 197.131 375.694 196.993Z" fill="#355389"/>
<path d="M376.366 198.659L376.204 198.266C376.158 198.127 375.995 198.057 375.856 198.104L372.89 199.284C372.751 199.33 372.681 199.492 372.751 199.654L372.913 200.048C372.983 200.187 373.122 200.256 373.261 200.21L376.227 199.029C376.366 198.983 376.412 198.821 376.366 198.659Z" fill="#355389"/>
<path d="M377.038 200.349L376.876 199.955C376.806 199.816 376.667 199.747 376.528 199.793L373.562 200.974C373.423 201.02 373.353 201.182 373.423 201.344L373.585 201.737C373.631 201.876 373.794 201.946 373.933 201.899L376.899 200.719C377.038 200.673 377.107 200.511 377.038 200.349Z" fill="#355389"/>
<path d="M385.241 198.613L372.82 216.273C372.797 216.319 372.774 216.366 372.751 216.412L371.476 220.301C371.337 220.763 371.847 221.134 372.241 220.833L375.555 218.333C375.601 218.31 375.624 218.264 375.67 218.217L388.138 200.511C388.3 200.279 388.231 199.979 387.999 199.817L385.913 198.474C385.682 198.358 385.403 198.405 385.241 198.613Z" fill="#B75742"/>
<path d="M375.671 218.24L375.647 218.287L372.449 220.694L371.569 220.115L372.774 216.435C373.701 216.944 374.813 217.477 375.671 218.24Z" fill="#F7CC7F"/>
<path d="M259.384 7.33716C261.169 8.77219 264.274 13.355 268.26 16.5723C270.577 18.4471 272.361 17.9842 275.328 18.3313C289.394 20.021 285.571 22.891 287.262 23.1919C286.776 24.3029 282.396 33.5843 281.585 35.4823C280.82 37.2182 279.522 37.982 277.622 37.7274C274.725 37.3339 271.782 37.0331 268.909 36.4081C261.563 34.8111 257.484 31.154 252.223 26.7101C250.833 25.5297 250.485 24.0483 251.204 22.3818C254.587 14.5818 259.013 8.05467 259.384 7.33716Z" fill="#466EB6"/>
<path d="M288.792 34.3712C288.722 37.4265 288.954 38.0514 287.656 37.5885C286.868 37.3107 286.104 36.9404 285.339 36.5701C284.806 36.2923 284.783 35.9451 285.223 35.5054C285.849 34.8804 286.497 34.2787 287.123 33.6537C286.66 32.4501 287.193 31.0614 288.305 30.3902C288.537 30.2513 288.375 30.5291 290.321 26.0388C283.856 25.2518 279.267 24.6963 271.365 23.7242C269.256 23.4696 267.379 22.6364 265.734 21.2708C260.079 16.5491 254.448 11.8273 248.817 7.12878C248.052 6.4807 247.959 5.55487 248.562 4.83736C249.025 4.28186 249.651 4.25871 250.3 4.3513C252.108 4.58275 269.789 6.78159 271.574 6.9899C273.937 7.26765 276 8.14719 277.83 9.6748C283.369 14.3039 288.931 18.9331 294.492 23.5622C295.257 24.1871 295.466 24.7889 295.188 25.4833C294.886 26.2702 294.261 26.6406 293.287 26.4091C292.592 26.2471 292.268 26.4786 292.036 27.1266C290.947 30.043 290.182 30.6911 290.46 31.7789C290.646 32.589 289.672 34.0009 288.792 34.3712Z" fill="#86B1F2"/>
<path d="M318.107 242.289L321.328 245.367C328.952 252.635 335.163 261.222 339.659 270.735L340.145 271.776C340.145 271.776 348.58 272.517 349.762 264.902C342.37 256.547 336.275 247.636 331.246 237.729L329.717 234.165L318.107 242.289Z" fill="#466EB6"/>
<path d="M329.717 234.165C330.134 234.767 327.863 237.058 324.665 239.28C321.467 241.502 318.501 242.868 318.107 242.266C317.69 241.664 319.961 239.349 323.182 237.127C326.38 234.882 329.3 233.563 329.717 234.165Z" fill="#86B1F2"/>
<path d="M329.74 234.188C329.74 234.188 323.298 239.604 320.656 240.16L321.467 241.271C322.441 240.738 323.53 240.067 324.665 239.28C327.84 237.058 330.088 234.813 329.74 234.188Z" fill="#355389"/>
<path d="M338.315 249.95C338.315 250.876 337.967 254.926 331.247 256.616C331.687 257.218 332.127 257.82 332.544 258.445C336.808 257.195 338.709 254.996 339.589 253.329C339.728 253.075 339.89 252.705 340.006 252.45C339.427 251.617 338.871 250.783 338.315 249.95Z" fill="#B75742"/>
<path d="M331.849 255.413L321.931 255.065L324.294 257.056L322.881 259.579L332.266 257.195L331.849 255.413Z" fill="#B75742"/>
<path d="M332.753 257.704L329.23 263.838L331.71 262.889L332.66 264.833L334.306 258.398L332.753 257.704Z" fill="#B75742"/>
<path d="M334.097 259.37C332.359 259.486 330.853 258.144 330.714 256.362C330.598 254.579 331.896 253.029 333.634 252.89C335.372 252.774 336.878 254.116 337.017 255.899C337.133 257.704 335.835 259.255 334.097 259.37Z" fill="#F47458"/>
<path d="M355.115 120.45L334.259 101.864C332.915 100.66 333.471 98.1607 335.348 97.1192L351.987 87.6989C353.053 87.0971 354.258 87.1434 355.023 87.8378L375.879 106.424C377.223 107.627 376.667 110.127 374.79 111.169L358.151 120.589C357.085 121.191 355.88 121.144 355.115 120.45Z" fill="#9BC1F9"/>
<path d="M354.119 105.66L352.381 91.3791C352.311 90.8236 352.705 90.245 353.262 90.083C353.818 89.8978 354.328 90.2219 354.397 90.7542L355.996 103.901L371.801 107.72C372.31 107.836 372.565 108.391 372.334 108.97C372.102 109.525 371.523 109.873 370.99 109.757L354.119 105.66Z" fill="white"/>
<path d="M2.01612 299.112C0.903778 299.112 0 300.153 0 301.449C0 302.745 0.903778 303.787 2.27103 302.213H413.05C413.583 302.213 414 301.519 414 300.662C414 299.806 413.583 299.112 413.05 299.112H2.01612Z" fill="#184655"/>
<path d="M81.7803 40.2502L83.9355 44.509L88.802 44.347L90.8645 49.3002L96.0091 47.5411L98.6045 53.0267L103.541 51.9851L106.901 56.8457L105.047 58.1187L102.544 54.4848L97.33 55.5727L94.8504 50.2955L89.6131 52.1008L87.3189 46.6385L82.5682 46.8005L80.5753 42.8426L77.47 43.6064L76.937 41.4307L81.7803 40.2502Z" fill="#F7CC7F"/>
<path d="M342.602 149.22L347.028 151.025L350.597 147.692L355.417 150.076L358.128 145.355L363.69 147.808L366.726 143.781L372.473 145.239L371.916 147.415L367.629 146.327L364.431 150.562L359.078 148.225L356.32 152.993L350.99 150.4L347.514 153.618L343.413 151.951L341.559 154.567L339.728 153.271L342.602 149.22Z" fill="#50BFA5"/>
</g>
<defs>
<clipPath id="clip0_11_14">
<rect width="414" height="303" fill="white"/>
</clipPath>
</defs>
</svg>
