<svg fill="none" version="1.1" viewBox="0 0 112 79" xmlns="http://www.w3.org/2000/svg">
 <g clip-path="url(#clip0_34_48)">
  <path d="m109.69 12.331c-1.291-4.8213-5.074-8.6226-9.8714-9.9207-8.7643-2.4106-43.822-2.4106-43.822-2.4106s-35.058 0-43.822 2.3179c-4.7051 1.298-8.5799 5.1921-9.8715 10.013-2.3064 8.8081-2.3064 27.073-2.3064 27.073s0 18.358 2.3064 27.073c1.2916 4.8212 5.0741 8.6226 9.8715 9.9207 8.8566 2.4106 43.822 2.4106 43.822 2.4106s35.058 0 43.822-2.3179c4.7974-1.2981 8.5804-5.0994 9.8714-9.9207 2.307-8.8081 2.307-27.073 2.307-27.073s0.092-18.358-2.307-27.166z" fill="#fff" fill-opacity=".9"/>
  <path d="m73.99 39.405-29.153-16.874v33.749l29.153-16.874z" fill="#0072BA"/>
 </g>
 <defs>
  <clipPath id="clip0_34_48">
   <rect width="112" height="78.809" fill="#fff"/>
  </clipPath>
 </defs>
</svg>
