<svg width="50" height="50" viewBox="0 0 50 50" fill="none" xmlns="http://www.w3.org/2000/svg">
<g clip-path="url(#clip0_415_111)">
<path d="M25 0C11.2109 0 0 11.2109 0 25C0 38.7891 11.2109 50 25 50C38.7891 50 50 38.7891 50 25C50 11.2109 38.7891 0 25 0ZM25 47.5C12.5781 47.5 2.5 37.4219 2.5 25C2.5 12.5781 12.5781 2.5 25 2.5C37.4219 2.5 47.5 12.5781 47.5 25C47.5 37.4219 37.4219 47.5 25 47.5ZM19.2188 15L28.75 25L19.2188 35H24.4922L33.75 25L24.4922 15H19.2188Z" fill="#0072BA"/>
</g>
<defs>
<clipPath id="clip0_415_111">
<rect width="50" height="50" fill="white" transform="matrix(-1 0 0 -1 50 50)"/>
</clipPath>
</defs>
</svg>
