<svg fill="none" version="1.1" viewBox="0 0 50 50" xmlns="http://www.w3.org/2000/svg">
 <g clip-path="url(#clip0_415_111)">
  <path d="m25 0c-13.789 0-25 11.211-25 25s11.211 25 25 25 25-11.211 25-25-11.211-25-25-25zm0 47.5c-12.422 0-22.5-10.078-22.5-22.5s10.078-22.5 22.5-22.5 22.5 10.078 22.5 22.5-10.078 22.5-22.5 22.5zm-5.7812-32.5 9.5312 10-9.5312 10h5.2734l9.2578-10-9.2578-10h-5.2734z" fill="#0072BA"/>
 </g>
 <defs>
  <clipPath id="clip0_415_111">
   <rect transform="matrix(-1 0 0 -1 50 50)" width="50" height="50" fill="#fff"/>
  </clipPath>
 </defs>
</svg>
