<svg width="86" height="70" viewBox="0 0 86 70" fill="none" xmlns="http://www.w3.org/2000/svg">
<path opacity="0.1" d="M26.875 34.475C30.175 35.825 32.725 38 34.525 41C36.475 43.85 37.45 47.3 37.45 51.35C37.45 56.75 35.725 61.175 32.275 64.625C28.825 68.075 24.55 69.8 19.45 69.8C14.05 69.8 9.625 68.075 6.175 64.625C2.725 61.175 1 56.75 1 51.35C1 48.65 1.3 46.025 1.9 43.475C2.65 40.925 4 37.1 5.95 32L17.875 0.0499902H35.875L26.875 34.475ZM74.575 34.475C77.875 35.825 80.425 38 82.225 41C84.175 43.85 85.15 47.3 85.15 51.35C85.15 56.75 83.425 61.175 79.975 64.625C76.525 68.075 72.25 69.8 67.15 69.8C61.75 69.8 57.325 68.075 53.875 64.625C50.425 61.175 48.7 56.75 48.7 51.35C48.7 48.65 49 46.025 49.6 43.475C50.35 40.925 51.7 37.1 53.65 32L65.575 0.0499902H83.575L74.575 34.475Z" fill="#0072BA"/>
</svg>
