<svg width="356" height="237" viewBox="0 0 356 237" fill="none" xmlns="http://www.w3.org/2000/svg">
<path fill-rule="evenodd" clip-rule="evenodd" d="M144.296 192.591C144.998 193.296 145.7 194.352 146.402 195.056L141.487 188.718C180.106 191.887 218.726 205.971 256.994 235.546C228.907 239.771 204.331 234.49 181.511 223.575L201.523 223.927C188.181 211.604 169.574 202.098 147.105 195.76C155.531 205.619 166.063 214.069 177.298 220.758C160.095 230.617 140.083 236.25 118.667 236.25C81.4517 236.25 48.4497 219.35 26.3314 192.591H144.296ZM124.635 157.735C128.146 167.593 133.061 177.1 139.03 185.55H21.4162C15.0966 176.395 9.83037 166.537 6.31953 155.622H124.284L122.88 150.341C192.394 152.101 253.483 173.931 306.848 214.773C294.56 223.575 280.868 229.913 265.069 234.138C260.505 228.152 255.59 222.167 249.27 216.181L252.781 211.956C219.077 186.254 179.053 165.833 124.635 157.735ZM0 119.357H118.316C118.316 129.568 119.72 139.426 122.178 148.581H4.21302C1.40434 139.426 0 129.568 0 119.357ZM123.231 84.5008C120.422 93.303 118.667 102.809 118.316 112.316H0C0.351085 101.753 2.45759 91.8946 5.61736 82.0362H123.933C124.635 80.6278 124.986 79.2195 125.688 77.8112C218.024 72.1778 292.454 91.1904 356 124.991C354.947 141.187 350.734 155.622 344.414 169.002C336.69 160.199 327.211 151.749 313.87 143.651L314.221 136.61C256.643 102.105 192.746 85.9091 123.231 84.5008ZM25.2781 45.7713L144.296 45.4192C143.594 46.1234 143.243 46.8275 142.54 47.5317L147.105 41.8983C228.205 30.6315 293.156 40.8421 344.765 68.6569C353.191 85.5571 356 102.105 356 119.005C346.521 109.851 336.339 101.753 324.051 96.1197L322.647 89.43C265.771 59.8547 204.331 46.8275 141.838 48.2359C135.519 56.686 130.252 65.4881 126.391 75.3465H8.07495C12.288 64.7839 18.2564 54.5734 25.2781 45.7713ZM119.018 0C140.785 0 161.148 5.98547 178.702 16.196C167.819 22.1815 158.339 29.9274 149.913 38.7295H30.8955C52.6627 14.7876 84.2604 0 119.018 0ZM181.16 14.4356C229.609 6.33756 302.635 23.9419 304.391 40.8421C313.87 42.9546 325.456 48.94 338.797 57.7422C298.422 -3.87296 229.609 -10.2105 181.16 14.4356ZM118.316 114.076C209.949 112.668 288.241 138.018 341.606 176.043C333.531 189.071 324.051 200.689 312.817 210.548C305.093 200.689 296.667 191.535 286.134 184.493L289.645 179.564C239.089 142.243 181.16 123.935 118.316 119.709V114.076Z" fill="#008BD0"/>
</svg>
